<svg width="40" height="40" viewBox="0 0 40 40" fill="none" xmlns="http://www.w3.org/2000/svg">
<rect width="40" height="40" rx="20" fill="#055C9F"/>
<path d="M26.2049 12.0212H13.7936C12.8143 12.0212 12.0205 12.8151 12.0205 13.7943V26.2056C12.0205 27.1849 12.8143 27.9787 13.7936 27.9787H26.2049C27.1841 27.9787 27.978 27.1849 27.978 26.2056V13.7943C27.978 12.8151 27.1841 12.0212 26.2049 12.0212Z" stroke="white" stroke-width="2" stroke-linecap="round" stroke-linejoin="round"/>
<path d="M16.8972 18.227C17.6316 18.227 18.227 17.6316 18.227 16.8972C18.227 16.1627 17.6316 15.5674 16.8972 15.5674C16.1627 15.5674 15.5674 16.1627 15.5674 16.8972C15.5674 17.6316 16.1627 18.227 16.8972 18.227Z" stroke="white" stroke-width="2" stroke-linecap="round" stroke-linejoin="round"/>
<path d="M27.9783 22.6596L23.5457 18.2269L13.7939 27.9787" stroke="white" stroke-width="2" stroke-linecap="round" stroke-linejoin="round"/>
</svg>
