<svg xmlns="http://www.w3.org/2000/svg" width="192" height="100" viewBox="0 0 192 100" fill="none">
  <g clip-path="url(#clip0_203_5636)">
    <path d="M185.709 53.6295C185.415 53.46 185.163 53.2282 184.969 52.9506C184.775 52.6729 184.644 52.356 184.586 52.0223C184.527 51.6886 184.543 51.3462 184.631 51.0191C184.719 50.692 184.878 50.3883 185.097 50.1293L182.68 32.4674L187.714 32.7145L188.504 49.9419C188.915 50.3375 189.166 50.8702 189.211 51.439C189.255 52.0077 189.089 52.573 188.745 53.0276C188.4 53.4822 187.901 53.7946 187.341 53.9056C186.782 54.0165 186.201 53.9183 185.709 53.6295Z" fill="#A0616A"/>
    <path d="M188.405 32.9486C188.301 33.0702 188.169 33.1636 188.02 33.2204L183.497 34.9467C183.27 35.0335 183.018 35.0298 182.793 34.9365C182.569 34.8432 182.389 34.6674 182.29 34.4452L178.283 25.4403C177.898 24.605 177.833 23.6577 178.099 22.7774C178.295 22.1492 178.658 21.5856 179.148 21.1461C179.639 20.7066 180.238 20.4075 180.884 20.2803C181.381 20.1781 181.894 20.1853 182.388 20.3016C182.979 20.4334 183.529 20.7108 183.986 21.1084C184.444 21.5061 184.795 22.0115 185.008 22.579L188.57 31.997C188.63 32.156 188.646 32.3281 188.617 32.4954C188.588 32.6627 188.515 32.8192 188.405 32.9486Z" fill="#CCCCCC"/>
    <path d="M164.833 96.7382H161.703L160.568 84.6098L164.833 84.667V96.7382Z" fill="#A0616A"/>
    <path d="M159.468 95.8442H165.503V99.6445H155.667C155.667 98.6366 156.067 97.67 156.78 96.9573C157.493 96.2446 158.459 95.8442 159.467 95.8442H159.468Z" fill="#2F2E41"/>
    <path d="M179.384 96.7385H176.254L174.765 84.667H179.384L179.384 96.7385Z" fill="#A0616A"/>
    <path d="M174.019 95.8442H180.054V99.6445H170.218C170.218 98.6366 170.618 97.67 171.331 96.9573C172.044 96.2446 173.01 95.8442 174.018 95.8442H174.019Z" fill="#2F2E41"/>
    <path d="M179.778 92.4434L174.863 92.0795C174.583 92.0589 174.32 91.9367 174.125 91.7359C173.929 91.5352 173.813 91.2698 173.799 90.9896L172.703 68.3389C172.692 68.1216 172.603 67.9156 172.451 67.7595C172.3 67.6035 172.096 67.5081 171.879 67.4912C171.663 67.4744 171.447 67.5373 171.273 67.6681C171.099 67.7989 170.979 67.9887 170.935 68.2018L166.363 90.5148C166.307 90.7893 166.152 91.0337 165.928 91.2021C165.704 91.3705 165.426 91.4512 165.146 91.4292L160.703 91.0737C160.553 91.0617 160.406 91.0202 160.272 90.9516C160.137 90.8829 160.018 90.7885 159.92 90.6737C159.822 90.5589 159.748 90.4259 159.702 90.2824C159.655 90.1388 159.637 89.9876 159.649 89.8372C159.65 89.8297 159.651 89.8222 159.651 89.8146L163.774 48.5936C163.79 48.4325 163.84 48.2766 163.92 48.1362C164.001 47.9958 164.11 47.874 164.241 47.7788C164.372 47.6836 164.522 47.6172 164.68 47.5839C164.839 47.5506 165.002 47.5511 165.161 47.5856L180.836 50.9932C181.096 51.0501 181.327 51.195 181.492 51.4033C181.657 51.6116 181.745 51.8705 181.741 52.1361L181.011 91.3195C181.005 91.6199 180.882 91.9061 180.668 92.1168C180.454 92.3275 180.165 92.446 179.865 92.4468C179.836 92.4466 179.807 92.4455 179.778 92.4434Z" fill="#2F2E41"/>
    <path d="M175.477 14.1282C178.94 14.1282 181.747 11.3211 181.747 7.8584C181.747 4.39568 178.94 1.58859 175.477 1.58859C172.015 1.58859 169.207 4.39568 169.207 7.8584C169.207 11.3211 172.015 14.1282 175.477 14.1282Z" fill="#A0616A"/>
    <path d="M165.749 51.7729C165.146 51.2323 164.668 50.5675 164.346 49.8242C164.025 49.081 163.868 48.2769 163.887 47.4674C163.887 38.4558 171.688 18.3219 171.932 17.6949C171.955 17.5436 172.161 17.4782 173.241 16.7488C174.322 16.0193 175.88 15.9066 177.872 16.4155C178.074 16.4673 178.259 16.5737 178.405 16.7231C178.551 16.8725 178.654 17.0591 178.702 17.2626L179.072 17.798C179.104 17.9339 179.168 18.0603 179.258 18.1669C179.348 18.2736 179.462 18.3577 179.591 18.4122C181.198 19.0891 186.304 22.2103 184.564 33.9565C182.948 44.8678 182.292 51.2837 182.085 53.5374C182.06 53.8047 181.943 54.055 181.753 54.2446C181.563 54.4343 181.313 54.5513 181.045 54.5752C180.258 54.6456 178.906 54.7396 177.296 54.7396C173.562 54.7384 168.443 54.2355 165.749 51.7729Z" fill="#CCCCCC"/>
    <path d="M158.257 48.4343C158.108 48.1301 158.027 47.7969 158.021 47.4582C158.015 47.1194 158.083 46.7834 158.22 46.4738C158.358 46.1642 158.561 45.8884 158.817 45.6661C159.072 45.4437 159.374 45.2801 159.699 45.1867L167.535 29.1746L171.577 32.1844L162.634 46.9297C162.754 47.4873 162.667 48.0698 162.387 48.5669C162.106 49.064 161.654 49.441 161.114 49.6265C160.575 49.812 159.986 49.7931 159.459 49.5733C158.933 49.3536 158.505 48.9483 158.258 48.4343H158.257Z" fill="#A0616A"/>
    <path d="M172.019 32.7646C171.866 32.8081 171.704 32.8121 171.548 32.7763L166.83 31.6893C166.593 31.6348 166.386 31.4915 166.252 31.2889C166.117 31.0863 166.066 30.8399 166.107 30.6003L167.799 20.8902C167.945 19.9822 168.418 19.1591 169.13 18.5764C169.643 18.1643 170.258 17.8984 170.91 17.8067C171.562 17.7149 172.227 17.8007 172.834 18.055C173.304 18.2469 173.726 18.5388 174.071 18.9104C174.488 19.3495 174.79 19.8859 174.948 20.471C175.107 21.0561 175.117 21.6714 174.977 22.2613L172.687 32.066C172.648 32.2315 172.566 32.3836 172.448 32.5065C172.331 32.6293 172.182 32.7184 172.019 32.7646H172.019Z" fill="#CCCCCC"/>
    <path d="M174.009 13.5234C173.704 13.2121 173.479 12.8316 173.353 12.4143C173.226 11.9971 173.203 11.5555 173.284 11.1273C173.503 9.9843 173.631 9.23567 173.656 8.96342C173.739 8.03237 172.798 7.27847 171.866 7.15754C171.83 7.15274 171.8 7.14977 171.775 7.14771C171.798 7.17057 171.824 7.19481 171.847 7.21629C172.023 7.38248 172.244 7.58935 172.191 7.80285C172.16 7.93132 172.042 8.02253 171.832 8.08128C170.376 8.48886 169.254 8.11466 168.302 6.90289C168.034 6.55854 167.85 6.1567 167.764 5.72907C167.423 4.05578 168.332 2.62938 169.154 1.72758C169.832 0.983973 170.932 0.0817204 172.318 0.00399931C173.396 -0.0561203 174.678 0.564276 175.061 1.68232C175.242 1.4144 175.483 1.19229 175.765 1.03359C176.047 0.874881 176.361 0.783936 176.684 0.767951C177.42 0.751992 178.145 0.953483 178.767 1.3472C181.807 3.08862 183.114 7.23709 181.62 10.4063C180.68 12.3998 178.645 13.8838 176.308 14.2793C176.161 14.3042 176.013 14.3167 175.865 14.3168C175.518 14.3162 175.175 14.2457 174.856 14.1096C174.537 13.9734 174.248 13.7743 174.008 13.5243L174.009 13.5234Z" fill="#2F2E41"/>
    <path d="M83.1295 44.7055C82.9976 44.3924 82.7768 44.1248 82.4945 43.9359C82.2121 43.747 81.8805 43.645 81.5408 43.6426H49.8294C49.3736 43.6428 48.9365 43.824 48.6142 44.1463C48.2918 44.4687 48.1107 44.9057 48.1104 45.3616V85.4794C48.1107 85.9352 48.2918 86.3723 48.6142 86.6947C48.9365 87.017 49.3736 87.1982 49.8294 87.1984H81.5419C81.9976 87.1978 82.4345 87.0165 82.7568 86.6943C83.079 86.372 83.2603 85.9351 83.2609 85.4794V45.3616C83.2617 45.1364 83.2174 44.9133 83.1306 44.7055H83.1295ZM82.878 85.4794C82.8776 85.8339 82.7366 86.1738 82.4859 86.4245C82.2352 86.6752 81.8953 86.8162 81.5408 86.8167H49.8294C49.4748 86.8166 49.1347 86.6757 48.884 86.425C48.6332 86.1743 48.4923 85.8342 48.4922 85.4796V45.3618C48.4926 45.0073 48.6337 44.6674 48.8844 44.4168C49.135 44.1661 49.4749 44.025 49.8294 44.0246H81.5419C81.809 44.0256 82.0697 44.1061 82.2908 44.256C82.5118 44.4058 82.6833 44.6181 82.7832 44.8658C82.8026 44.9151 82.8194 44.9655 82.8335 45.0166C82.8638 45.1292 82.8792 45.2452 82.8792 45.3618L82.878 85.4794Z" fill="#3F3D56"/>
    <path d="M76.5118 53.1143H66.9599C66.7572 53.1143 66.5628 53.0338 66.4195 52.8905C66.2762 52.7471 66.1957 52.5528 66.1957 52.3501C66.1957 52.1474 66.2762 51.953 66.4195 51.8097C66.5628 51.6664 66.7572 51.5859 66.9599 51.5859H76.5118C76.7144 51.5859 76.9088 51.6664 77.0521 51.8097C77.1954 51.953 77.276 52.1474 77.276 52.3501C77.276 52.5528 77.1954 52.7471 77.0521 52.8905C76.9088 53.0338 76.7144 53.1143 76.5118 53.1143Z" fill="#3F3D56"/>
    <path d="M76.5118 57.1261H66.9599C66.7572 57.1261 66.5628 57.0456 66.4195 56.9022C66.2762 56.7589 66.1957 56.5646 66.1957 56.3619C66.1957 56.1592 66.2762 55.9648 66.4195 55.8215C66.5628 55.6782 66.7572 55.5977 66.9599 55.5977H76.5118C76.7144 55.5977 76.9088 55.6782 77.0521 55.8215C77.1954 55.9648 77.276 56.1592 77.276 56.3619C77.276 56.5646 77.1954 56.7589 77.0521 56.9022C76.9088 57.0456 76.7144 57.1261 76.5118 57.1261Z" fill="#3F3D56"/>
    <path d="M62.0588 59.4104H55.0783C54.8504 59.4101 54.6318 59.3195 54.4706 59.1583C54.3095 58.9971 54.2188 58.7786 54.2186 58.5506V50.3131C54.2188 50.0852 54.3095 49.8666 54.4706 49.7055C54.6318 49.5443 54.8504 49.4536 55.0783 49.4534H62.0588C62.2867 49.4536 62.5053 49.5443 62.6664 49.7055C62.8276 49.8666 62.9183 50.0852 62.9185 50.3131V58.5506C62.9183 58.7786 62.8276 58.9971 62.6664 59.1583C62.5053 59.3195 62.2867 59.4101 62.0588 59.4104Z" fill="#352E43"/>
    <path d="M76.4454 65.3407H54.8582C54.6555 65.3407 54.4611 65.2602 54.3178 65.1169C54.1745 64.9736 54.094 64.7792 54.094 64.5765C54.094 64.3739 54.1745 64.1795 54.3178 64.0362C54.4611 63.8929 54.6555 63.8124 54.8582 63.8124H76.4454C76.5458 63.8124 76.6452 63.8321 76.7379 63.8705C76.8306 63.9089 76.9148 63.9652 76.9858 64.0362C77.0568 64.1072 77.1131 64.1914 77.1515 64.2841C77.1899 64.3768 77.2096 64.4762 77.2096 64.5765C77.2096 64.6769 77.1899 64.7763 77.1515 64.869C77.1131 64.9617 77.0568 65.0459 76.9858 65.1169C76.9148 65.1879 76.8306 65.2441 76.7379 65.2826C76.6452 65.321 76.5458 65.3407 76.4454 65.3407Z" fill="#CCCCCC"/>
    <path d="M76.4454 69.3525H54.8582C54.6555 69.3525 54.4611 69.272 54.3178 69.1287C54.1745 68.9854 54.094 68.791 54.094 68.5883C54.094 68.3857 54.1745 68.1913 54.3178 68.048C54.4611 67.9047 54.6555 67.8241 54.8582 67.8241H76.4454C76.6481 67.8241 76.8425 67.9047 76.9858 68.048C77.1291 68.1913 77.2096 68.3857 77.2096 68.5883C77.2096 68.791 77.1291 68.9854 76.9858 69.1287C76.8425 69.272 76.6481 69.3525 76.4454 69.3525Z" fill="#CCCCCC"/>
    <path d="M76.4454 73.3643H54.8582C54.6555 73.3643 54.4611 73.2838 54.3178 73.1405C54.1745 72.9971 54.094 72.8028 54.094 72.6001C54.094 72.3974 54.1745 72.2031 54.3178 72.0597C54.4611 71.9164 54.6555 71.8359 54.8582 71.8359H76.4454C76.6481 71.8359 76.8425 71.9164 76.9858 72.0597C77.1291 72.2031 77.2096 72.3974 77.2096 72.6001C77.2096 72.8028 77.1291 72.9971 76.9858 73.1405C76.8425 73.2838 76.6481 73.3643 76.4454 73.3643Z" fill="#CCCCCC"/>
    <path d="M76.4454 77.3761H54.8582C54.6555 77.3761 54.4611 77.2956 54.3178 77.1523C54.1745 77.0089 54.094 76.8146 54.094 76.6119C54.094 76.4092 54.1745 76.2148 54.3178 76.0715C54.4611 75.9282 54.6555 75.8477 54.8582 75.8477H76.4454C76.6481 75.8477 76.8425 75.9282 76.9858 76.0715C77.1291 76.2148 77.2096 76.4092 77.2096 76.6119C77.2096 76.8146 77.1291 77.0089 76.9858 77.1523C76.8425 77.2956 76.6481 77.3761 76.4454 77.3761Z" fill="#CCCCCC"/>
    <path d="M76.4454 81.3879H54.8582C54.6555 81.3879 54.4611 81.3073 54.3178 81.164C54.1745 81.0207 54.094 80.8263 54.094 80.6237C54.094 80.421 54.1745 80.2266 54.3178 80.0833C54.4611 79.94 54.6555 79.8595 54.8582 79.8595H76.4454C76.6481 79.8595 76.8425 79.94 76.9858 80.0833C77.1291 80.2266 77.2096 80.421 77.2096 80.6237C77.2096 80.8263 77.1291 81.0207 76.9858 81.164C76.8425 81.3073 76.6481 81.3879 76.4454 81.3879Z" fill="#CCCCCC"/>
    <path d="M146.3 100H190.875C190.936 100 190.994 99.9759 191.037 99.933C191.079 99.8902 191.104 99.832 191.104 99.7714C191.104 99.7108 191.079 99.6526 191.037 99.6098C190.994 99.5669 190.936 99.5428 190.875 99.5428H146.3C146.239 99.5428 146.181 99.5669 146.138 99.6098C146.095 99.6526 146.071 99.7108 146.071 99.7714C146.071 99.832 146.095 99.8902 146.138 99.933C146.181 99.9759 146.239 100 146.3 100Z" fill="#3F3D56"/>
    <path d="M66.2222 33.9766C70.2952 33.9766 73.597 30.6748 73.597 26.6018C73.597 22.5288 70.2952 19.227 66.2222 19.227C62.1492 19.227 58.8474 22.5288 58.8474 26.6018C58.8474 30.6748 62.1492 33.9766 66.2222 33.9766Z" fill="#352E43"/>
    <path d="M65.4914 29.415C65.3255 29.4153 65.164 29.3617 65.0312 29.2621L65.023 29.2559L63.2898 27.9301C63.2094 27.8686 63.1419 27.7919 63.0912 27.7043C63.0405 27.6167 63.0075 27.52 62.9942 27.4196C62.9809 27.3193 62.9875 27.2173 63.0137 27.1195C63.0398 27.0217 63.0849 26.9301 63.1465 26.8497C63.2081 26.7694 63.2849 26.702 63.3725 26.6514C63.4602 26.6008 63.557 26.5679 63.6573 26.5547C63.7577 26.5415 63.8596 26.5482 63.9574 26.5745C64.0551 26.6007 64.1468 26.6459 64.227 26.7076L65.3496 27.5685L68.0024 24.1076C68.1267 23.9456 68.3102 23.8395 68.5126 23.8128C68.715 23.786 68.9198 23.8408 69.0819 23.965L69.0821 23.9652L69.0656 23.9881L69.0825 23.9652C69.2444 24.0896 69.3503 24.2732 69.377 24.4756C69.4037 24.678 69.349 24.8827 69.225 25.0448L66.1047 29.1138C66.0325 29.2075 65.9397 29.2834 65.8334 29.3355C65.7272 29.3876 65.6104 29.4145 65.4921 29.4141L65.4914 29.415Z" fill="white"/>
    <path d="M17.6693 23.2328C20.4294 23.2328 22.6668 20.9953 22.6668 18.2353C22.6668 15.4753 20.4294 13.2379 17.6693 13.2379C14.9093 13.2379 12.6719 15.4753 12.6719 18.2353C12.6719 20.9953 14.9093 23.2328 17.6693 23.2328Z" fill="#CCCCCC"/>
    <path d="M17.174 20.1416C17.0615 20.1418 16.9521 20.1054 16.8622 20.038L16.8567 20.0339L15.6822 19.1346C15.5755 19.0494 15.5065 18.9257 15.4899 18.7902C15.4734 18.6546 15.5106 18.518 15.5937 18.4096C15.6767 18.3012 15.7989 18.2296 15.9341 18.2103C16.0693 18.191 16.2066 18.2254 16.3167 18.3062L17.0775 18.8896L18.8751 16.5451C18.9593 16.4353 19.0837 16.3635 19.2208 16.3454C19.358 16.3273 19.4967 16.3644 19.6065 16.4486L19.6066 16.4487L19.5954 16.4637L19.6069 16.4489C19.7165 16.5332 19.7882 16.6576 19.8063 16.7947C19.8244 16.9318 19.7874 17.0705 19.7033 17.1804L17.5888 19.9381C17.54 20.0017 17.4771 20.0531 17.4051 20.0884C17.3331 20.1238 17.2539 20.142 17.1737 20.1418L17.174 20.1416Z" fill="white"/>
    <path d="M31.7128 29.9529C31.609 29.7066 31.4353 29.4961 31.2132 29.3475C30.991 29.1988 30.7302 29.1185 30.4629 29.1165H5.50962C5.15095 29.1167 4.80702 29.2593 4.55341 29.5129C4.29979 29.7665 4.15723 30.1104 4.15704 30.4691V62.036C4.15723 62.3946 4.29979 62.7386 4.55341 62.9922C4.80702 63.2458 5.15095 63.3884 5.50962 63.3886H30.4629C30.8215 63.3881 31.1652 63.2454 31.4188 62.9919C31.6723 62.7383 31.815 62.3946 31.8155 62.036V30.4691C31.816 30.2919 31.7811 30.1164 31.7128 29.9529ZM31.5151 62.0362C31.5146 62.3149 31.4036 62.5821 31.2065 62.7791C31.0094 62.9762 30.7423 63.0872 30.4636 63.0877H5.50962C5.23074 63.0877 4.96328 62.9769 4.76608 62.7797C4.56889 62.5825 4.4581 62.3151 4.4581 62.0362V30.4691C4.45864 30.1904 4.5696 29.9232 4.76668 29.7262C4.96377 29.5291 5.23091 29.4181 5.50962 29.4176H30.4629C30.6732 29.4184 30.8784 29.482 31.0524 29.6C31.2264 29.7181 31.3612 29.8854 31.4397 30.0805C31.455 30.1193 31.4682 30.1589 31.4792 30.1991C31.5032 30.2877 31.5153 30.379 31.5153 30.4707L31.5151 62.0362Z" fill="#CCCCCC"/>
    <path d="M26.5048 36.5695H18.9888C18.8293 36.5695 18.6763 36.5061 18.5636 36.3934C18.4508 36.2806 18.3875 36.1277 18.3875 35.9682C18.3875 35.8087 18.4508 35.6558 18.5636 35.543C18.6763 35.4302 18.8293 35.3669 18.9888 35.3669H26.5046C26.6641 35.3669 26.817 35.4302 26.9298 35.543C27.0426 35.6558 27.1059 35.8087 27.1059 35.9682C27.1059 36.1277 27.0426 36.2806 26.9298 36.3934C26.817 36.5061 26.6641 36.5695 26.5046 36.5695H26.5048Z" fill="#CCCCCC"/>
    <path d="M26.5048 39.7264H18.9888C18.8293 39.7264 18.6763 39.663 18.5636 39.5502C18.4508 39.4375 18.3875 39.2845 18.3875 39.125C18.3875 38.9656 18.4508 38.8126 18.5636 38.6998C18.6763 38.5871 18.8293 38.5237 18.9888 38.5237H26.5046C26.6641 38.5237 26.817 38.5871 26.9298 38.6998C27.0426 38.8126 27.1059 38.9656 27.1059 39.125C27.1059 39.2845 27.0426 39.4375 26.9298 39.5502C26.817 39.663 26.6641 39.7264 26.5046 39.7264H26.5048Z" fill="#CCCCCC"/>
    <path d="M15.1322 41.5238H9.6396C9.46026 41.5236 9.28832 41.4523 9.16151 41.3255C9.0347 41.1986 8.96338 41.0267 8.9632 40.8474V34.3657C8.96338 34.1863 9.0347 34.0144 9.16151 33.8876C9.28832 33.7608 9.46026 33.6894 9.6396 33.6893H15.1322C15.3115 33.6895 15.4834 33.7608 15.6102 33.8876C15.737 34.0144 15.8084 34.1863 15.8086 34.3657V40.8474C15.8084 41.0267 15.7371 41.1986 15.6103 41.3255C15.4835 41.4523 15.3115 41.5236 15.1322 41.5238Z" fill="#CCCCCC"/>
    <path d="M26.4525 46.19H9.46655C9.30707 46.19 9.15412 46.1267 9.04136 46.0139C8.92859 45.9011 8.86523 45.7482 8.86523 45.5887C8.86523 45.4292 8.92859 45.2763 9.04136 45.1635C9.15412 45.0507 9.30707 44.9874 9.46655 44.9874H26.4525C26.612 44.9874 26.7649 45.0507 26.8777 45.1635C26.9905 45.2763 27.0538 45.4292 27.0538 45.5887C27.0538 45.7482 26.9905 45.9011 26.8777 46.0139C26.7649 46.1267 26.612 46.19 26.4525 46.19Z" fill="#CCCCCC"/>
    <path d="M26.4525 49.3478H9.46655C9.30707 49.3478 9.15412 49.2844 9.04136 49.1717C8.92859 49.0589 8.86523 48.9059 8.86523 48.7465C8.86523 48.587 8.92859 48.434 9.04136 48.3213C9.15412 48.2085 9.30707 48.1452 9.46655 48.1452H26.4525C26.612 48.1452 26.7649 48.2085 26.8777 48.3213C26.9905 48.434 27.0538 48.587 27.0538 48.7465C27.0538 48.9059 26.9905 49.0589 26.8777 49.1717C26.7649 49.2844 26.612 49.3478 26.4525 49.3478Z" fill="#CCCCCC"/>
    <path d="M26.4525 52.5035H9.46655C9.30707 52.5035 9.15412 52.4401 9.04136 52.3274C8.92859 52.2146 8.86523 52.0616 8.86523 51.9022C8.86523 51.7427 8.92859 51.5897 9.04136 51.477C9.15412 51.3642 9.30707 51.3009 9.46655 51.3009H26.4525C26.612 51.3009 26.7649 51.3642 26.8777 51.477C26.9905 51.5897 27.0538 51.7427 27.0538 51.9022C27.0538 52.0616 26.9905 52.2146 26.8777 52.3274C26.7649 52.4401 26.612 52.5035 26.4525 52.5035Z" fill="#CCCCCC"/>
    <path d="M26.4525 55.661H9.46655C9.30707 55.661 9.15412 55.5977 9.04136 55.4849C8.92859 55.3721 8.86523 55.2192 8.86523 55.0597C8.86523 54.9002 8.92859 54.7473 9.04136 54.6345C9.15412 54.5217 9.30707 54.4584 9.46655 54.4584H26.4525C26.612 54.4584 26.7649 54.5217 26.8777 54.6345C26.9905 54.7473 27.0538 54.9002 27.0538 55.0597C27.0538 55.2192 26.9905 55.3721 26.8777 55.4849C26.7649 55.5977 26.612 55.661 26.4525 55.661Z" fill="#CCCCCC"/>
    <path d="M26.4525 58.817H9.46655C9.30707 58.817 9.15412 58.7536 9.04136 58.6408C8.92859 58.5281 8.86523 58.3751 8.86523 58.2156C8.86523 58.0562 8.92859 57.9032 9.04136 57.7905C9.15412 57.6777 9.30707 57.6143 9.46655 57.6143H26.4525C26.612 57.6143 26.7649 57.6777 26.8777 57.7905C26.9905 57.9032 27.0538 58.0562 27.0538 58.2156C27.0538 58.3751 26.9905 58.5281 26.8777 58.6408C26.7649 58.7536 26.612 58.817 26.4525 58.817Z" fill="#CCCCCC"/>
    <path d="M0.180927 63.5205H35.2546C35.3023 63.5205 35.3481 63.5015 35.3818 63.4678C35.4156 63.434 35.4345 63.3883 35.4345 63.3406C35.4345 63.2928 35.4156 63.2471 35.3818 63.2133C35.3481 63.1796 35.3023 63.1606 35.2546 63.1606H0.180927C0.157302 63.1605 0.133882 63.165 0.112004 63.174C0.0901255 63.1829 0.0702189 63.196 0.0534186 63.2126C0.0366183 63.2292 0.0232559 63.249 0.0140911 63.2708C0.00492618 63.2925 0.000137087 63.3159 2.90193e-06 63.3395C-0.000131283 63.3632 0.00438932 63.3866 0.0133062 63.4085C0.0222232 63.4303 0.035364 63.4502 0.0519745 63.467C0.0685851 63.4838 0.0883412 63.4972 0.110117 63.5064C0.131892 63.5155 0.155258 63.5203 0.178883 63.5205H0.180927Z" fill="#CCCCCC"/>
    <path d="M113.678 23.2328C116.438 23.2328 118.675 20.9953 118.675 18.2353C118.675 15.4753 116.438 13.2379 113.678 13.2379C110.918 13.2379 108.68 15.4753 108.68 18.2353C108.68 20.9953 110.918 23.2328 113.678 23.2328Z" fill="#CCCCCC"/>
    <path d="M113.182 20.1416C113.07 20.1418 112.961 20.1054 112.871 20.038L112.865 20.0339L111.691 19.1346C111.584 19.0494 111.515 18.9257 111.498 18.7902C111.482 18.6546 111.519 18.518 111.602 18.4096C111.685 18.3012 111.807 18.2296 111.943 18.2103C112.078 18.191 112.215 18.2254 112.325 18.3062L113.086 18.8896L114.884 16.5451C114.968 16.4353 115.092 16.3635 115.229 16.3454C115.366 16.3273 115.505 16.3644 115.615 16.4486L115.615 16.4487L115.604 16.4637L115.615 16.4489C115.725 16.5332 115.797 16.6576 115.815 16.7947C115.833 16.9318 115.796 17.0705 115.712 17.1804L113.597 19.9381C113.548 20.0017 113.485 20.0531 113.413 20.0884C113.341 20.1238 113.262 20.142 113.182 20.1418L113.182 20.1416Z" fill="white"/>
    <path d="M127.721 29.9529C127.617 29.7066 127.444 29.4961 127.222 29.3475C126.999 29.1988 126.739 29.1185 126.471 29.1165H101.518C101.159 29.1167 100.815 29.2593 100.562 29.5129C100.308 29.7665 100.166 30.1104 100.165 30.4691V62.036C100.166 62.3946 100.308 62.7386 100.562 62.9922C100.815 63.2458 101.159 63.3884 101.518 63.3886H126.471C126.83 63.3881 127.174 63.2454 127.427 62.9919C127.681 62.7383 127.823 62.3946 127.824 62.036V30.4691C127.824 30.2919 127.79 30.1164 127.721 29.9529ZM127.524 62.0362C127.523 62.3149 127.412 62.5821 127.215 62.7791C127.018 62.9762 126.751 63.0872 126.472 63.0877H101.518C101.38 63.0877 101.243 63.0605 101.116 63.0077C100.988 62.9548 100.872 62.8774 100.775 62.7797C100.677 62.6821 100.599 62.5662 100.547 62.4386C100.494 62.311 100.467 62.1743 100.467 62.0362V30.4691C100.467 30.1904 100.578 29.9232 100.775 29.7262C100.972 29.5291 101.239 29.4181 101.518 29.4176H126.471C126.682 29.4184 126.887 29.482 127.061 29.6C127.235 29.7181 127.37 29.8854 127.448 30.0805C127.463 30.1193 127.477 30.1589 127.488 30.1991C127.512 30.2877 127.524 30.379 127.524 30.4707L127.524 62.0362Z" fill="#CCCCCC"/>
    <path d="M122.513 36.5695H114.997C114.838 36.5695 114.685 36.5061 114.572 36.3934C114.459 36.2806 114.396 36.1277 114.396 35.9682C114.396 35.8087 114.459 35.6558 114.572 35.543C114.685 35.4302 114.838 35.3669 114.997 35.3669H122.513C122.673 35.3669 122.825 35.4302 122.938 35.543C123.051 35.6558 123.114 35.8087 123.114 35.9682C123.114 36.1277 123.051 36.2806 122.938 36.3934C122.825 36.5061 122.673 36.5695 122.513 36.5695H122.513Z" fill="#CCCCCC"/>
    <path d="M122.513 39.7264H114.997C114.838 39.7264 114.685 39.663 114.572 39.5502C114.459 39.4375 114.396 39.2845 114.396 39.125C114.396 38.9656 114.459 38.8126 114.572 38.6998C114.685 38.5871 114.838 38.5237 114.997 38.5237H122.513C122.673 38.5237 122.825 38.5871 122.938 38.6998C123.051 38.8126 123.114 38.9656 123.114 39.125C123.114 39.2845 123.051 39.4375 122.938 39.5502C122.825 39.663 122.673 39.7264 122.513 39.7264H122.513Z" fill="#CCCCCC"/>
    <path d="M111.141 41.5238H105.648C105.469 41.5236 105.297 41.4523 105.17 41.3255C105.043 41.1986 104.972 41.0267 104.972 40.8474V34.3657C104.972 34.1863 105.043 34.0144 105.17 33.8876C105.297 33.7608 105.469 33.6894 105.648 33.6893H111.141C111.32 33.6895 111.492 33.7608 111.619 33.8876C111.745 34.0144 111.817 34.1863 111.817 34.3657V40.8474C111.817 41.0267 111.746 41.1986 111.619 41.3255C111.492 41.4523 111.32 41.5236 111.141 41.5238Z" fill="#CCCCCC"/>
    <path d="M122.461 46.19H105.475C105.315 46.19 105.163 46.1267 105.05 46.0139C104.937 45.9011 104.874 45.7482 104.874 45.5887C104.874 45.4292 104.937 45.2763 105.05 45.1635C105.163 45.0507 105.315 44.9874 105.475 44.9874H122.461C122.62 44.9874 122.773 45.0507 122.886 45.1635C122.999 45.2763 123.062 45.4292 123.062 45.5887C123.062 45.7482 122.999 45.9011 122.886 46.0139C122.773 46.1267 122.62 46.19 122.461 46.19Z" fill="#CCCCCC"/>
    <path d="M122.461 49.3478H105.475C105.315 49.3478 105.163 49.2844 105.05 49.1717C104.937 49.0589 104.874 48.9059 104.874 48.7465C104.874 48.587 104.937 48.434 105.05 48.3213C105.163 48.2085 105.315 48.1452 105.475 48.1452H122.461C122.62 48.1452 122.773 48.2085 122.886 48.3213C122.999 48.434 123.062 48.587 123.062 48.7465C123.062 48.9059 122.999 49.0589 122.886 49.1717C122.773 49.2844 122.62 49.3478 122.461 49.3478Z" fill="#CCCCCC"/>
    <path d="M122.461 52.5035H105.475C105.315 52.5035 105.163 52.4401 105.05 52.3274C104.937 52.2146 104.874 52.0616 104.874 51.9022C104.874 51.7427 104.937 51.5897 105.05 51.477C105.163 51.3642 105.315 51.3009 105.475 51.3009H122.461C122.62 51.3009 122.773 51.3642 122.886 51.477C122.999 51.5897 123.062 51.7427 123.062 51.9022C123.062 52.0616 122.999 52.2146 122.886 52.3274C122.773 52.4401 122.62 52.5035 122.461 52.5035Z" fill="#CCCCCC"/>
    <path d="M122.461 55.661H105.475C105.315 55.661 105.163 55.5977 105.05 55.4849C104.937 55.3721 104.874 55.2192 104.874 55.0597C104.874 54.9002 104.937 54.7473 105.05 54.6345C105.163 54.5217 105.315 54.4584 105.475 54.4584H122.461C122.62 54.4584 122.773 54.5217 122.886 54.6345C122.999 54.7473 123.062 54.9002 123.062 55.0597C123.062 55.2192 122.999 55.3721 122.886 55.4849C122.773 55.5977 122.62 55.661 122.461 55.661Z" fill="#CCCCCC"/>
    <path d="M122.461 58.817H105.475C105.315 58.817 105.163 58.7536 105.05 58.6408C104.937 58.5281 104.874 58.3751 104.874 58.2156C104.874 58.0562 104.937 57.9032 105.05 57.7905C105.163 57.6777 105.315 57.6143 105.475 57.6143H122.461C122.62 57.6143 122.773 57.6777 122.886 57.7905C122.999 57.9032 123.062 58.0562 123.062 58.2156C123.062 58.3751 122.999 58.5281 122.886 58.6408C122.773 58.7536 122.62 58.817 122.461 58.817Z" fill="#CCCCCC"/>
    <path d="M96.1893 63.5205H131.263C131.311 63.5205 131.357 63.5015 131.39 63.4678C131.424 63.434 131.443 63.3883 131.443 63.3406C131.443 63.2928 131.424 63.2471 131.39 63.2133C131.357 63.1796 131.311 63.1606 131.263 63.1606H96.1893C96.1657 63.1605 96.1423 63.165 96.1204 63.174C96.0985 63.1829 96.0786 63.196 96.0618 63.2126C96.045 63.2292 96.0317 63.249 96.0225 63.2708C96.0133 63.2925 96.0086 63.3159 96.0084 63.3395C96.0083 63.3632 96.0128 63.3866 96.0217 63.4085C96.0306 63.4303 96.0438 63.4502 96.0604 63.467C96.077 63.4838 96.0968 63.4972 96.1185 63.5064C96.1403 63.5155 96.1637 63.5203 96.1873 63.5205H96.1893Z" fill="#CCCCCC"/>
    <path d="M43.2048 87.3354H87.7802C87.8408 87.3354 87.899 87.3113 87.9418 87.2685C87.9847 87.2256 88.0088 87.1675 88.0088 87.1068C88.0088 87.0462 87.9847 86.988 87.9418 86.9452C87.899 86.9023 87.8408 86.8782 87.7802 86.8782H43.2048C43.1442 86.8782 43.0861 86.9023 43.0432 86.9452C43.0003 86.988 42.9763 87.0462 42.9763 87.1068C42.9763 87.1675 43.0003 87.2256 43.0432 87.2685C43.0861 87.3113 43.1442 87.3354 43.2048 87.3354Z" fill="#3F3D56"/>
  </g>
  <defs>
    <clipPath id="clip0_203_5636">
      <rect width="191.104" height="100" fill="white"/>
    </clipPath>
  </defs>
</svg>