<svg width="103" height="100" viewBox="0 0 103 100" fill="none" xmlns="http://www.w3.org/2000/svg">
<g id="undraw_no_data_re_kwbl 1" clip-path="url(#clip0_85_4602)">
<path id="Vector" d="M65.0368 22.4896H37.4321C36.803 22.4904 36.1999 22.7406 35.7551 23.1854C35.3103 23.6303 35.0601 24.2333 35.0593 24.8624V86.2142L34.7429 86.3107L27.9711 88.3845C27.6501 88.4823 27.3035 88.4489 27.0072 88.2914C26.7109 88.1339 26.4893 87.8653 26.3908 87.5445L6.2476 21.7477C6.14957 21.4268 6.18299 21.0801 6.34049 20.7838C6.498 20.4874 6.76671 20.2658 7.08757 20.1675L17.523 16.9722L47.7758 7.71205L58.2112 4.51673C58.37 4.46785 58.5369 4.45077 58.7023 4.46647C58.8677 4.48216 59.0284 4.53032 59.1752 4.60819C59.3219 4.68606 59.4519 4.79212 59.5577 4.92028C59.6634 5.04844 59.7429 5.1962 59.7915 5.3551L64.9403 22.1733L65.0368 22.4896Z" fill="#F2F2F2"/>
<path id="Vector_2" d="M71.0606 22.1734L64.855 1.90362C64.7518 1.56589 64.583 1.25181 64.3583 0.979333C64.1336 0.706856 63.8575 0.481323 63.5456 0.315618C63.2337 0.149913 62.8923 0.0472837 62.5407 0.0135986C62.1892 -0.0200866 61.8344 0.0158324 61.4968 0.119299L46.8252 4.61015L16.574 13.8718L1.90245 18.3643C1.22089 18.5736 0.650204 19.0447 0.315666 19.6743C-0.0188718 20.304 -0.0899324 21.0406 0.118085 21.7225L21.3274 90.9962C21.4964 91.5467 21.8374 92.0285 22.3003 92.371C22.7632 92.7135 23.3237 92.8986 23.8996 92.8992C24.1661 92.8993 24.4311 92.8593 24.6857 92.7805L34.7431 89.7023L35.0594 89.6042V89.2736L34.7431 89.3701L24.5924 92.4784C23.9908 92.6618 23.341 92.5991 22.7856 92.304C22.2302 92.0089 21.8144 91.5056 21.6296 90.9045L0.421864 21.6292C0.330289 21.3313 0.298373 21.0183 0.327942 20.7081C0.357511 20.3979 0.447981 20.0965 0.594178 19.8213C0.740375 19.5461 0.939427 19.3024 1.17993 19.1043C1.42043 18.9061 1.69766 18.7573 1.99575 18.6664L16.6673 14.174L46.9186 4.91387L61.5901 0.421434C61.8162 0.352434 62.0513 0.317253 62.2877 0.317032C62.795 0.318171 63.2886 0.481727 63.6963 0.783743C64.1039 1.08576 64.4041 1.51036 64.5529 1.99537L70.73 22.1734L70.8281 22.4897H71.1571L71.0606 22.1734Z" fill="#3F3D56"/>
<path id="Vector_3" d="M19.4064 20.2192C19.1015 20.219 18.8047 20.1211 18.5596 19.9398C18.3144 19.7586 18.1338 19.5035 18.0442 19.2121L16.0067 12.557C15.952 12.3783 15.933 12.1904 15.9508 12.0043C15.9687 11.8182 16.023 11.6375 16.1107 11.4723C16.1984 11.3072 16.3178 11.161 16.462 11.0421C16.6063 10.9231 16.7725 10.8337 16.9513 10.779L44.7821 2.25858C45.1431 2.14841 45.5331 2.18599 45.8665 2.36306C46.1998 2.54013 46.4493 2.84223 46.5602 3.20305L48.5977 9.85823C48.7078 10.2193 48.6702 10.6092 48.4931 10.9426C48.316 11.2759 48.014 11.5254 47.6532 11.6363L19.8223 20.1567C19.6875 20.1981 19.5474 20.2192 19.4064 20.2192Z" fill="#352E43"/>
<path id="Vector_4" d="M30.0797 7.11106C31.827 7.11106 33.2434 5.69463 33.2434 3.94738C33.2434 2.20012 31.827 0.783691 30.0797 0.783691C28.3324 0.783691 26.916 2.20012 26.916 3.94738C26.916 5.69463 28.3324 7.11106 30.0797 7.11106Z" fill="#352E43"/>
<path id="Vector_5" d="M30.0795 5.95078C31.1859 5.95078 32.0829 5.05385 32.0829 3.94744C32.0829 2.84102 31.1859 1.94409 30.0795 1.94409C28.9731 1.94409 28.0762 2.84102 28.0762 3.94744C28.0762 5.05385 28.9731 5.95078 30.0795 5.95078Z" fill="white"/>
<path id="Vector_6" d="M95.3275 92.0908H41.8612C41.5047 92.0904 41.1629 91.9486 40.9109 91.6965C40.6588 91.4445 40.517 91.1027 40.5166 90.7463V26.6816C40.517 26.3251 40.6588 25.9834 40.9109 25.7313C41.1629 25.4792 41.5047 25.3374 41.8612 25.337H95.3275C95.6839 25.3374 96.0257 25.4792 96.2778 25.7313C96.5298 25.9834 96.6716 26.3251 96.672 26.6816V90.7463C96.6716 91.1027 96.5298 91.4445 96.2778 91.6965C96.0257 91.9486 95.6839 92.0904 95.3275 92.0908Z" fill="#E6E6E6"/>
<path id="Vector_7" d="M70.7301 22.1733H37.4323C36.7194 22.1743 36.036 22.458 35.5319 22.9621C35.0278 23.4662 34.7442 24.1496 34.7432 24.8625V89.37L35.0595 89.2736V24.8625C35.0603 24.2334 35.3105 23.6303 35.7553 23.1855C36.2002 22.7407 36.8032 22.4905 37.4323 22.4897H70.8282L70.7301 22.1733ZM99.7569 22.1733H37.4323C36.7194 22.1743 36.036 22.458 35.5319 22.9621C35.0278 23.4662 34.7442 24.1496 34.7432 24.8625V97.3109C34.7442 98.0238 35.0278 98.7072 35.5319 99.2113C36.036 99.7154 36.7194 99.999 37.4323 100H99.7569C100.47 99.999 101.153 99.7154 101.657 99.2113C102.161 98.7072 102.445 98.0238 102.446 97.3109V24.8625C102.445 24.1496 102.161 23.4662 101.657 22.9621C101.153 22.458 100.47 22.1743 99.7569 22.1733ZM102.13 97.3109C102.129 97.94 101.879 98.543 101.434 98.9879C100.989 99.4327 100.386 99.6829 99.7569 99.6837H37.4323C36.8032 99.6829 36.2002 99.4327 35.7553 98.9879C35.3105 98.543 35.0603 97.94 35.0595 97.3109V24.8625C35.0603 24.2334 35.3105 23.6303 35.7553 23.1855C36.2002 22.7407 36.8032 22.4905 37.4323 22.4897H99.7569C100.386 22.4905 100.989 22.7407 101.434 23.1855C101.879 23.6303 102.129 24.2334 102.13 24.8625V97.3109Z" fill="#3F3D56"/>
<path id="Vector_8" d="M83.1477 29.1334H54.0418C53.6644 29.1329 53.3025 28.9828 53.0356 28.7159C52.7687 28.449 52.6186 28.0871 52.6182 27.7097V20.7496C52.6186 20.3721 52.7687 20.0103 53.0356 19.7434C53.3025 19.4765 53.6644 19.3264 54.0418 19.3259H83.1477C83.5252 19.3264 83.887 19.4765 84.1539 19.7434C84.4208 20.0103 84.571 20.3721 84.5714 20.7496V27.7097C84.571 28.0871 84.4208 28.449 84.154 28.7159C83.8871 28.9828 83.5252 29.1329 83.1477 29.1334Z" fill="#352E43"/>
<path id="Vector_9" d="M68.5944 19.8005C70.3416 19.8005 71.758 18.3841 71.758 16.6368C71.758 14.8896 70.3416 13.4731 68.5944 13.4731C66.8471 13.4731 65.4307 14.8896 65.4307 16.6368C65.4307 18.3841 66.8471 19.8005 68.5944 19.8005Z" fill="#352E43"/>
<path id="Vector_10" d="M68.594 18.5638C69.6582 18.5638 70.521 17.7011 70.521 16.6368C70.521 15.5726 69.6582 14.7098 68.594 14.7098C67.5297 14.7098 66.667 15.5726 66.667 16.6368C66.667 17.7011 67.5297 18.5638 68.594 18.5638Z" fill="white"/>
</g>
<defs>
<clipPath id="clip0_85_4602">
<rect width="102.446" height="100" fill="white"/>
</clipPath>
</defs>
</svg>
